<svg xmlns="http://www.w3.org/2000/svg" width="799.542" height="757.239" viewBox="0 0 799.542 757.239">
  <g id="trinidadAndTobagoHigh" transform="translate(-0.179 0.328)">
    <path id="TT-TOB" d="M794.69,0l-6.15,4.43L777.72,17.3l-4.18.52-9.04-5.35-6.91,1.3-6.68,3.81-16.03,3.4-10.74,3.98-7.89,2.92-7.21,3.75-5.87,4.39L692.9,46.2,644.83,77.87l-5.64,7.49-3.21,7.54-7.35,2.97-7.88,1.27-4.81,2.42-1.31,8.79,4.64,5.7,7.91,1.35,8.52-4.32,4.02,9.26,9.6-3.88,15.3-13.29,10.07-2.4,34.35-17.39,5.36.21L721.26,85l7.19.08,6.29-3.82,4.13-3.35,13.18-8.17,2.01-.45,8.5-11.41,1.11-2.54,5.6-.14,5.66,1.93,4.99-.97,3.49-8.69h3.51l6.34,1.51,4.25-12.54,1.96-17.77-.55-14.38Z" fill="#d41933" stroke="#fff" stroke-width="0.5"/>
    <path id="TT-POS" d="M237.55,390.72l-8.35-1.25-4.7.35-6.06,4.93-2.29,1.04h.01l11.51,5.29,18.79,12.87.01-.02,2.32-12.1-.93-2.51-2.23-4.3Z" fill="#d41933" stroke="#fff" stroke-width="0.5"/>
    <path id="TT-CHA" d="M318.45,454.48l-23.17-.45-17.76.75L266.4,470.3h-.92l-.04,8.96h.05l7.92.83,3.73.96,4.21,2.69,5.4,1.04,4.3,3.58,6.9,2.15,14.52-1.04,3.96-3.61.69-5.77,3.87-13.34Z" fill="#d41933" stroke="#fff" stroke-width="0.5"/>
    <path id="TT-SFO" d="M277.26,631.45l7.75-29.42-15.07.99-2.98-.8.71,4.33-2.14,11.54-4.37,7.47-6.87,7.84-4.54,3.68.59.75Z" fill="#d41933" stroke="#fff" stroke-width="0.5"/>
    <path id="TT-TUP" d="M430.56,316.66l-4.83,3.69-65.91-.28-30.09-3.67-1.99.17h0l1.82,3.68,4.27,14.46,4.63,9.56-.63,6.45-3.6,4.33-3.43,1.08-9.85-2.36-4.14-.24-4.18,1.16-3.64.36-15.16-2.18-4.86,1.47-3.17,5.76-1.19,10.04,4.05,25.39-.19,14.39,6.81,44.11,23.17.45,2.48-4.54h2.78l5.53,1.16,7.13-.38,7.03-3.2,8-1.82,24.52-1.05,16.27-5.16,14.63-6.99,2.37-3.64,3.57-4.51.93-4.21-.02-4.12-1.19-3.56-4.25-5.58-2.16-4.12-1.85-9.53,2.42-8.75.22-10.22-.56-4.84-3-2.63-2.44-1.19-3.57-.24-2.92-.96-2.4-1.07,1.08-2.27,16.09-1.62,5.16-1.61,3.23-2.42,9.28-10.48,3.71-2.6,4.86-2.42,3.36-3.17.13-5.14-.57-5.14-5.48-8.01ZM372.09,430.29l-5-.12-5.22-1.7-1.4-.93-.32-1.01.19-1.11.66-1.04,2.14-2.03.91-1.26.63-3.25-.09-1.05-.14-1.07.06-1.08.2-.92.46-.87.51-.6.32-.68-.17-.72-.49-.93-.08-1.4.64-5.17,8.04,7.71.81,4,2.48,8.12.15,3.5-.88,2.24-1.72.71Z" fill="#fbfd00" stroke="#fff" stroke-width="0.5"/>
    <path id="TT-PTF" d="M134.96,698.79l5.42-.48,6.45-2.2,12.1-10.2,3.45-4.83,2.29-3.91,5.1-7.16.66-3.07-1.52-2.8-3.01-3.1-1-1.32v.01L148,674.76l-21.77,10.47,1.85,2.53Z" fill="#fe9136" stroke="#fff" stroke-width="0.5"/>
    <path id="TT-PED" d="M312.7,738.92v-.03l3.55-83.4-4.44-5.97-6.24-5.72-28.31-12.35-26.92,6.38-.59-.75-3.04,2.47-6.42,2.52-6.38.23-1.69.07,2.46,3.81,15.49,13.66,7.1,4.48,2.91,5.33,1.57,4.12-.25,9.93-2.31,10.56-2.65,5.57-7.11,8.38-2.89,4.89-2.05,6.29-2.82,21.43h0l.61.12,48.62-3.95Z" fill="#fe9136" stroke="#fff" stroke-width="0.5"/>
    <path id="TT-CTT" d="M416.05,517.53l-11.04-3.14-.83-2.53-.34-4.99,4.68-12.98.12-9.17-4.41-4.66-1.77-4.68-1.66-24.37-2.33-6.18-6.28-5.34-16.27,5.16L351.4,445.7l-8,1.82-7.03,3.2-7.13.38-5.53-1.16h-2.78l-2.48,4.54,2.54,12.27-3.87,13.34-.69,5.77-3.96,3.61-14.52,1.04-6.9-2.15-4.3-3.58-5.4-1.04-4.21-2.69-3.73-.96-7.92-.83h-.05l-.01,2.16-3.79,21.96-7.53,17.91-3.24,11.39,1.25,8.32,2.13,3.95,3.3,11.3.56,4.49-.97,1.69-1.95.4-1.54.85.23,3.15,1.75,2.53,4.97,4.19,1.04,3.12,1.53,10.83,2.86,9.35.93,5.36v.01l2.98.8,15.07-.99,11.37-1.19,19.42-8.17,19.03-3.64,16.26-.3L361,590.4l7.25,1.91,4.86,2.27,4.59,1.4,6.93,2.95,5.05,4.78,8.14-11.88,4.59-15.75,3.41-33.07,2.63-11.46Z" fill="#fe9136" stroke="#fff" stroke-width="0.5"/>
    <path id="TT-PRT" d="M389.68,603.71l-5.05-4.78-6.93-2.95-4.59-1.4-4.86-2.27L361,590.4l-9.91-1.67-16.26.3-19.03,3.64-19.42,8.17-11.37,1.19-7.75,29.42,28.31,12.35,6.24,5.72,4.44,5.97-3.55,83.4v.03l22.95,2.02,36.17-7.16,12.5-1.1,34.85,5.68,7.94-.8-8.13-89.41-9.37-16.46-5.3-6.57-4.79-1.01-2.1-4.89-3.65-2.57Z" fill="#d41933" stroke="#fff" stroke-width="0.5"/>
    <path id="TT-SJL" d="M330.8,356.13l3.43-1.08,3.6-4.33.63-6.45-4.63-9.56-4.27-14.46-1.82-3.68-7.93.65-3.6,3.16-10.75,12.65-4.67,4.26-1.06-.35-10.95.35-1.39,1.34-2.22,2.76-3.33,2.68-4.71,1.13,4.25-4.31-1.57-2.21-1.34-1.25-.95-1.53-.39-2.91h-3.49l.16,5.97-.16,1.93h-4.23l-2.91-7.13-2.92,2.38-4.34,5.79-7.12,3.27-2.47-.03.22,2.38.97,12.07-3.23,13.39-10.06,17.71,8.08,4.3,2.23,4.3.93,2.51-2.32,12.1-.01.02,3.88,2.65-4.18,3.55,13.61,17.36,5.76,21.2-.05,11.59h.92l11.12-15.52,17.76-.75-6.81-44.11.19-14.39-4.05-25.39,1.19-10.04,3.17-5.76,4.86-1.47,15.16,2.18,3.64-.36,4.18-1.16,4.14.24Z" fill="#5ab145" stroke="#fff" stroke-width="0.5"/>
    <path id="TT-MRC" d="M506.19,513.32l-32.3-3.4-57.84,7.61-7.6,14.02-2.63,11.46-3.41,33.07-4.59,15.75-8.14,11.88,4.09,12.94,3.65,2.57,2.1,4.89,4.79,1.01,5.3,6.57,9.37,16.46,8.13,89.41h.01l5.85-.57,25.54-6.15,12.89-4.83,10.03-6.74,10.06-8.61,12.92-7.99,13.68-4.18,12.2,2.68-4.16-29.35.3-33.72,7.14-29.86,16.44-17.76L528.9,575.52l-10.16-15.13-3.79-7.33-2.92-7.9Z" fill="#5ab145" stroke="#fff" stroke-width="0.5"/>
    <path id="TT-SGE" d="M526.73,377.12l29.82-37.07,24.12-42.59-23.59-4.71-73.66,8.29-10.24,4.35-33.12,4.02-9.49,7.25h-.01l2.26,1.79,5.48,8.01.57,5.14-.13,5.14-3.36,3.17-4.86,2.42-3.71,2.6-9.28,10.48-3.23,2.42-5.16,1.61-16.09,1.62-1.08,2.27,2.4,1.07,2.92.96,3.57.24,2.44,1.19,3,2.63.56,4.84-.22,10.22-2.42,8.75,1.85,9.53,2.16,4.12,4.25,5.58,1.19,3.56.02,4.12-.93,4.21-3.57,4.51-2.37,3.64-14.63,6.99,6.28,5.34,2.33,6.18,1.66,24.37,1.77,4.68,4.41,4.66-.12,9.17-4.68,12.98.34,4.99.83,2.53,11.04,3.14,57.84-7.61,32.3,3.4-1.95-10.53-.34-16.22,16.43-14.17-2.29-17.12-11.02-35.13-.63-16.6,3.05-17.28,6.73-11.08Z" fill="#fbfd00" stroke="#fff" stroke-width="0.5"/>
    <path id="TT-ARI" d="M372.09,430.29l2.69-.66,1.72-.71.88-2.24-.15-3.5-2.48-8.12-.81-4-8.04-7.71-.64,5.17.08,1.4.49.93.17.72-.32.68-.51.6-.46.87-.2.92-.06,1.08.14,1.07.09,1.05-.63,3.25-.91,1.26L361,424.38l-.66,1.04-.19,1.11.32,1.01,1.4.93,5.22,1.7Z" fill="#d41933" stroke="#fff" stroke-width="0.5"/>
    <path id="TT-SIP" d="M12.73,756.66l9.92-.14,11.62-4.46,11.05-6.59,8.32-6.5,10.31-4.98,13.47-1.6,49.2.1,11.65,1.36,10.56,3.14,6.55,3.76,5.17,3.85,5.64,2.98,8.02,1.25,5.76-.66,11.16-2.68,6.35-.66,16.18-6.52,5.32-1.32,22.69,3.83,2.82-21.43,2.05-6.29,2.89-4.89,7.11-8.38,2.65-5.57,2.31-10.56.25-9.93-1.57-4.12-2.91-5.33-7.1-4.48-15.49-13.66-2.46-3.81h0l-22.35.82-29.35-5.07-8.6.14-7.21,3.81.49,17.4-.3.25,1,1.32,3.01,3.1,1.52,2.8-.66,3.07-5.1,7.16-2.29,3.91-3.45,4.83-12.1,10.2-6.45,2.2-5.42.48-6.88-11.03-1.85-2.53h0l-2.66,1.29-43.79,13.1-9.5,4.65-8.88,6.76-5.91,8.66-3.75,3.64-18.42,3.48-6.24,1.92-2.7,2.16L6.07,740.54.53,748.36Z" fill="#d41933" stroke="#fff" stroke-width="0.5"/>
    <path id="TT-DMN" d="M103.31,380.86l-5.37-.61-2.72,2.42-.77,2.04-1.22,7.27.11,2.38,3.19-.54,4.65.14,1.25-1.81-3.38-2.26-.83-1.95,1.39-1.72,1.73-.66,1.48.28,3.79,2.33,1.2-1.9Zm32.79,8.39.69-1.85,4.21-2.17-.12-3.83.72-2.73-.99-2.26-4.09-.07-4.39,1.79-4.28,9.88,1.41,1.15,5.48.99Zm113.77-41.7-.22-2.38h0l-14.22-.18-26.14,6.14-23.27-1.98-7.67,3.22-29.52,20.47,3.59,6.72,2.79,3.11,3.61,1.13,28.96,1.97,12.15,2.59,16.22,7.43,2.29-1.04,6.06-4.93,4.7-.35,8.35,1.25,10.06-17.71,3.23-13.39Z" fill="#fbfd00" stroke="#fff" stroke-width="0.5"/>
  </g>
</svg>
